<svg width="28" height="28" viewBox="0 0 28 28" fill="none" xmlns="http://www.w3.org/2000/svg">
<path d="M19.5 16C20.9587 16 22.3576 16.5795 23.3891 17.6109C24.4205 18.6424 25 20.0413 25 21.5C25 22.9587 24.4205 24.3576 23.3891 25.3891C22.3576 26.4205 20.9587 27 19.5 27C18.0413 27 16.6424 26.4205 15.6109 25.3891C14.5795 24.3576 14 22.9587 14 21.5C14 20.0413 14.5795 18.6424 15.6109 17.6109C16.6424 16.5795 18.0413 16 19.5 16ZM14 2C15.0262 2 16.0132 2.39444 16.7568 3.10172C17.5004 3.80901 17.9437 4.77504 17.995 5.8L18 6H23C23.2549 6.00028 23.5 6.09788 23.6854 6.27285C23.8707 6.44782 23.9822 6.68695 23.9972 6.94139C24.0121 7.19584 23.9293 7.44638 23.7657 7.64183C23.6021 7.83729 23.3701 7.9629 23.117 7.993L23 8H22.151L21.557 15.332C20.1784 14.8715 18.6852 14.8864 17.316 15.3743C15.9468 15.8622 14.7807 16.7949 14.0039 18.0234C13.2271 19.2519 12.8845 20.7054 13.0308 22.1515C13.1771 23.5976 13.8039 24.953 14.811 26.001L10.766 26C9.82384 26.0001 8.91619 25.6455 8.22357 25.0068C7.53095 24.3681 7.10413 23.4921 7.028 22.553L5.848 8H5C4.75507 7.99997 4.51866 7.91004 4.33563 7.74728C4.15259 7.58453 4.03566 7.36025 4.007 7.117L4 7C4.00003 6.75507 4.08996 6.51866 4.25272 6.33563C4.41547 6.15259 4.63975 6.03566 4.883 6.007L5 6H10C10 4.93913 10.4214 3.92172 11.1716 3.17157C11.9217 2.42143 12.9391 2 14 2ZM17.73 19.024L17.662 18.966C17.5784 18.9082 17.4792 18.8772 17.3775 18.8772C17.2758 18.8772 17.1766 18.9082 17.093 18.966L17.023 19.024L16.966 19.094C16.9084 19.1775 16.8775 19.2765 16.8775 19.378C16.8775 19.4795 16.9084 19.5785 16.966 19.662L17.024 19.732L18.794 21.501L17.026 23.267L16.968 23.337C16.9104 23.4205 16.8795 23.5195 16.8795 23.621C16.8795 23.7225 16.9104 23.8215 16.968 23.905L17.026 23.975L17.096 24.032C17.1795 24.0896 17.2785 24.1205 17.38 24.1205C17.4815 24.1205 17.5805 24.0896 17.664 24.032L17.734 23.975L19.5 22.208L21.27 23.977L21.339 24.035C21.4225 24.0926 21.5215 24.1235 21.623 24.1235C21.7245 24.1235 21.8235 24.0926 21.907 24.035L21.977 23.977L22.034 23.907C22.0916 23.8235 22.1225 23.7245 22.1225 23.623C22.1225 23.5215 22.0916 23.4225 22.034 23.339L21.977 23.269L20.207 21.501L21.979 19.731L22.037 19.662C22.0948 19.5784 22.1258 19.4792 22.1258 19.3775C22.1258 19.2758 22.0948 19.1766 22.037 19.093L21.979 19.024L21.91 18.966C21.8264 18.9082 21.7272 18.8772 21.6255 18.8772C21.5238 18.8772 21.4246 18.9082 21.341 18.966L21.272 19.024L19.5 20.794L17.73 19.024L17.662 18.966L17.731 19.024H17.73ZM14 4C13.4954 3.99984 13.0094 4.19041 12.6395 4.5335C12.2695 4.87659 12.0428 5.34684 12.005 5.85L12 6H16L15.995 5.85C15.9572 5.34684 15.7305 4.87659 15.3605 4.5335C14.9906 4.19041 14.5046 3.99984 14 4Z" fill="#324C73" fill-opacity="0.96"/>
</svg>
