<svg width="26" height="26" viewBox="0 0 26 26" fill="none" xmlns="http://www.w3.org/2000/svg">
<path d="M23.8334 4.62223L21.1611 1.95001C20.9314 1.73101 20.6263 1.60884 20.3089 1.60884C19.9916 1.60884 19.6864 1.73101 19.4567 1.95001L17.0806 4.33334H4.33336C3.95027 4.33334 3.58287 4.48552 3.31198 4.75641C3.0411 5.02729 2.88892 5.39469 2.88892 5.77778V21.6667C2.88892 22.0498 3.0411 22.4172 3.31198 22.688C3.58287 22.9589 3.95027 23.1111 4.33336 23.1111H20.2222C20.6053 23.1111 20.9727 22.9589 21.2436 22.688C21.5145 22.4172 21.6667 22.0498 21.6667 21.6667V8.49334L23.8334 6.32667C24.0592 6.10053 24.186 5.79402 24.186 5.47445C24.186 5.15488 24.0592 4.84837 23.8334 4.62223ZM13.5995 14.5383L10.5734 15.21L11.2956 12.2128L18.1928 5.30112L20.5256 7.63389L13.5995 14.5383ZM21.3056 6.81056L18.9728 4.47778L20.3089 3.14167L22.6417 5.47445L21.3056 6.81056Z" fill="#324C73" fill-opacity="0.96"/>
</svg>
