<svg width="35" height="35" viewBox="0 0 35 35" fill="none" xmlns="http://www.w3.org/2000/svg">
<path d="M19.25 17.5C19.432 17.5 19.6088 17.514 19.7838 17.5402C18.5354 18.4299 17.5179 19.6053 16.8162 20.9682C16.1145 22.3311 15.7489 23.8421 15.75 25.375C15.75 26.817 16.0667 28.1873 16.6355 29.414C15.4798 29.6449 14.3035 29.7575 13.125 29.75C7.154 29.75 3.5 27.2195 3.5 23.625V21C3.5 20.0717 3.86875 19.1815 4.52513 18.5251C5.1815 17.8687 6.07174 17.5 7 17.5H19.25Z" fill="white"/>
<path d="M29.75 11.375C29.75 12.5353 29.2891 13.6481 28.4686 14.4686C27.6481 15.2891 26.5353 15.75 25.375 15.75C24.2147 15.75 23.1019 15.2891 22.2814 14.4686C21.4609 13.6481 21 12.5353 21 11.375C21 10.2147 21.4609 9.10188 22.2814 8.28141C23.1019 7.46094 24.2147 7 25.375 7C26.5353 7 27.6481 7.46094 28.4686 8.28141C29.2891 9.10188 29.75 10.2147 29.75 11.375Z" fill="white"/>
<path d="M13.125 3.5C13.9293 3.5 14.7258 3.65843 15.4689 3.96624C16.2121 4.27405 16.8873 4.72521 17.456 5.29397C18.0248 5.86273 18.476 6.53794 18.7838 7.28106C19.0916 8.02418 19.25 8.82065 19.25 9.625C19.25 10.4293 19.0916 11.2258 18.7838 11.9689C18.476 12.7121 18.0248 13.3873 17.456 13.956C16.8873 14.5248 16.2121 14.976 15.4689 15.2838C14.7258 15.5916 13.9293 15.75 13.125 15.75C11.5005 15.75 9.94263 15.1047 8.79397 13.956C7.64531 12.8074 7 11.2495 7 9.625C7 8.00055 7.64531 6.44263 8.79397 5.29397C9.94263 4.14531 11.5005 3.5 13.125 3.5Z" fill="white"/>
<path d="M33.25 25.375C33.25 27.4636 32.4203 29.4666 30.9435 30.9435C29.4666 32.4203 27.4636 33.25 25.375 33.25C23.2864 33.25 21.2834 32.4203 19.8065 30.9435C18.3297 29.4666 17.5 27.4636 17.5 25.375C17.5 23.2864 18.3297 21.2834 19.8065 19.8065C21.2834 18.3297 23.2864 17.5 25.375 17.5C27.4636 17.5 29.4666 18.3297 30.9435 19.8065C32.4203 21.2834 33.25 23.2864 33.25 25.375ZM26.25 21.875C26.25 21.6429 26.1578 21.4204 25.9937 21.2563C25.8296 21.0922 25.6071 21 25.375 21C25.1429 21 24.9204 21.0922 24.7563 21.2563C24.5922 21.4204 24.5 21.6429 24.5 21.875V24.5H21.875C21.6429 24.5 21.4204 24.5922 21.2563 24.7563C21.0922 24.9204 21 25.1429 21 25.375C21 25.6071 21.0922 25.8296 21.2563 25.9937C21.4204 26.1578 21.6429 26.25 21.875 26.25H24.5V28.875C24.5 29.1071 24.5922 29.3296 24.7563 29.4937C24.9204 29.6578 25.1429 29.75 25.375 29.75C25.6071 29.75 25.8296 29.6578 25.9937 29.4937C26.1578 29.3296 26.25 29.1071 26.25 28.875V26.25H28.875C29.1071 26.25 29.3296 26.1578 29.4937 25.9937C29.6578 25.8296 29.75 25.6071 29.75 25.375C29.75 25.1429 29.6578 24.9204 29.4937 24.7563C29.3296 24.5922 29.1071 24.5 28.875 24.5H26.25V21.875Z" fill="white"/>
</svg>
